<svg width="29" height="28" viewBox="0 0 29 28" fill="none" xmlns="http://www.w3.org/2000/svg">
<path fill-rule="evenodd" clip-rule="evenodd" d="M14.5077 27.5C21.9635 27.5 28.0077 21.4558 28.0077 14C28.0077 6.54416 21.9635 0.5 14.5077 0.5C7.05184 0.5 1.00768 6.54416 1.00768 14C1.00768 15.9844 1.43584 17.8688 2.20481 19.5659C2.31036 19.7988 2.33201 20.0621 2.25574 20.3062L0.546867 25.7746C0.312375 26.525 0.995566 27.24 1.75584 27.04L7.07359 25.6406C7.33673 25.5713 7.6158 25.6139 7.85242 25.7482C9.81653 26.8633 12.0878 27.5 14.5077 27.5Z" fill="url(#paint0_linear_121_1878)"/>
<path d="M7.07359 25.6406L6.94634 25.157L7.07359 25.6406ZM7.85242 25.7482L7.60557 26.1831L7.85242 25.7482ZM0.546867 25.7746L0.0696268 25.6255L0.546867 25.7746ZM1.75584 27.04L1.88309 27.5235L1.75584 27.04ZM27.5077 14C27.5077 21.1797 21.6874 27 14.5077 27V28C22.2397 28 28.5077 21.732 28.5077 14H27.5077ZM14.5077 1C21.6874 1 27.5077 6.8203 27.5077 14H28.5077C28.5077 6.26801 22.2397 0 14.5077 0V1ZM1.50768 14C1.50768 6.8203 7.32798 1 14.5077 1V0C6.7757 0 0.507682 6.26801 0.507682 14H1.50768ZM2.66024 19.3595C1.92006 17.726 1.50768 15.9118 1.50768 14H0.507682C0.507682 16.057 0.951618 18.0116 1.74938 19.7722L2.66024 19.3595ZM1.7785 20.1571L0.0696268 25.6255L1.02411 25.9237L2.73298 20.4554L1.7785 20.1571ZM1.88309 27.5235L7.20084 26.1241L6.94634 25.157L1.62859 26.5564L1.88309 27.5235ZM14.5077 27C12.1765 27 9.99011 26.3869 8.09927 25.3134L7.60557 26.1831C9.64296 27.3397 11.999 28 14.5077 28V27ZM7.20084 26.1241C7.32974 26.0902 7.47514 26.109 7.60557 26.1831L8.09927 25.3134C7.75646 25.1188 7.34372 25.0524 6.94634 25.157L7.20084 26.1241ZM0.0696268 25.6255C-0.28211 26.751 0.742674 27.8236 1.88309 27.5235L1.62859 26.5564C1.24846 26.6565 0.906861 26.2989 1.02411 25.9237L0.0696268 25.6255ZM1.74938 19.7722C1.80753 19.9006 1.81587 20.0375 1.7785 20.1571L2.73298 20.4554C2.84816 20.0868 2.81319 19.697 2.66024 19.3595L1.74938 19.7722Z" fill="url(#paint1_linear_121_1878)"/>
<rect x="6.00781" y="7.5" width="12" height="12" rx="1" fill="white"/>
<path d="M22.2078 9.1L19.4078 11.2C19.156 11.3889 19.0078 11.6852 19.0078 12V15.882C19.0078 16.2607 19.2218 16.607 19.5606 16.7764L22.2842 18.1382C22.6167 18.3044 23.0078 18.0627 23.0078 17.691V9.5C23.0078 9.08798 22.5374 8.85279 22.2078 9.1Z" fill="white"/>
<defs>
<linearGradient id="paint0_linear_121_1878" x1="6.00759" y1="3" x2="25.0076" y2="24.0001" gradientUnits="userSpaceOnUse">
<stop stop-color="#C4C4C4"/>
<stop offset="0.0001" stop-color="#8874BE"/>
<stop offset="1" stop-color="#6163CB"/>
</linearGradient>
<linearGradient id="paint1_linear_121_1878" x1="5.50759" y1="1.5" x2="25.0076" y2="26.0001" gradientUnits="userSpaceOnUse">
<stop stop-color="#8B76BD"/>
<stop offset="1" stop-color="#5E62CC"/>
</linearGradient>
</defs>
</svg>
