<svg width="20" height="20" viewBox="0 0 20 20" fill="none" xmlns="http://www.w3.org/2000/svg">
<path d="M18 10.5C18 10.776 17.901 11.013 17.7031 11.2109C17.5104 11.4036 17.276 11.5 17 11.5H16V12.5547C16 12.8828 15.9323 13.1953 15.7969 13.4922C15.6667 13.7891 15.4896 14.0495 15.2656 14.2734C15.0469 14.4922 14.7891 14.6693 14.4922 14.8047C14.1953 14.9349 13.8828 15 13.5547 15H4.44531C4.11719 15 3.80469 14.9349 3.50781 14.8047C3.21094 14.6693 2.95052 14.4922 2.72656 14.2734C2.50781 14.0495 2.33073 13.7891 2.19531 13.4922C2.0651 13.1953 2 12.8828 2 12.5547V7.44531C2 7.11719 2.0651 6.80469 2.19531 6.50781C2.33073 6.21094 2.50781 5.95312 2.72656 5.73438C2.95052 5.51042 3.21094 5.33333 3.50781 5.20312C3.80469 5.06771 4.11719 5 4.44531 5H13.5547C13.888 5 14.2005 5.06771 14.4922 5.20312C14.7891 5.33333 15.0469 5.51042 15.2656 5.73438C15.4896 5.95312 15.6667 6.21094 15.7969 6.50781C15.9271 6.80469 15.9948 7.11719 16 7.44531V7.79688V8.5H17C17.1354 8.5 17.263 8.52604 17.3828 8.57812C17.5026 8.63021 17.6094 8.70312 17.7031 8.79688C17.7969 8.89062 17.8698 8.9974 17.9219 9.11719C17.974 9.23698 18 9.36458 18 9.5V10.5ZM15 7.5C15 7.29688 14.9609 7.10417 14.8828 6.92188C14.8047 6.73958 14.6953 6.58073 14.5547 6.44531C14.4193 6.30469 14.2604 6.19531 14.0781 6.11719C13.8958 6.03906 13.7031 6 13.5 6H4.5C4.29688 6 4.10417 6.03906 3.92188 6.11719C3.73958 6.19531 3.57812 6.30469 3.4375 6.44531C3.30208 6.58073 3.19531 6.73958 3.11719 6.92188C3.03906 7.10417 3 7.29688 3 7.5V12.5C3 12.7031 3.03906 12.8958 3.11719 13.0781C3.19531 13.2604 3.30208 13.4219 3.4375 13.5625C3.57812 13.6979 3.73958 13.8047 3.92188 13.8828C4.10417 13.9609 4.29688 14 4.5 14H13.5C13.7031 14 13.8958 13.9609 14.0781 13.8828C14.2604 13.8047 14.4193 13.6979 14.5547 13.5625C14.6953 13.4219 14.8047 13.2604 14.8828 13.0781C14.9609 12.8958 15 12.7031 15 12.5V7.5ZM12.25 7C12.4583 7 12.6354 7.07292 12.7812 7.21875C12.9271 7.36458 13 7.54167 13 7.75V12.25C13 12.4583 12.9271 12.6354 12.7812 12.7812C12.6354 12.9271 12.4583 13 12.25 13H4.75C4.54167 13 4.36458 12.9271 4.21875 12.7812C4.07292 12.6354 4 12.4583 4 12.25V7.75C4 7.54167 4.07292 7.36458 4.21875 7.21875C4.36458 7.07292 4.54167 7 4.75 7H12.25Z" fill="white"/>
</svg>
