<svg width="20" height="20" viewBox="0 0 20 20" fill="none" xmlns="http://www.w3.org/2000/svg">
<path d="M14 16.2422C14 16.1536 14.0156 16.0833 14.0469 16.0312C14.0833 15.974 14.1302 15.9141 14.1875 15.8516C14.2604 15.7786 14.3385 15.7109 14.4219 15.6484C14.5052 15.5807 14.5859 15.5104 14.6641 15.4375C15.0391 15.0938 15.3724 14.7135 15.6641 14.2969C15.9557 13.875 16.2005 13.4297 16.3984 12.9609C16.5964 12.4922 16.7448 12.0078 16.8438 11.5078C16.9479 11.0078 17 10.5052 17 10C17 9.5 16.9479 9 16.8438 8.5C16.7448 7.99479 16.5938 7.50781 16.3906 7.03906C16.1927 6.5651 15.9479 6.11719 15.6562 5.69531C15.3698 5.27344 15.0391 4.89323 14.6641 4.55469C14.5859 4.48177 14.5052 4.41406 14.4219 4.35156C14.3385 4.28385 14.2604 4.21354 14.1875 4.14062C14.125 4.07812 14.0781 4.02083 14.0469 3.96875C14.0156 3.91667 14 3.84375 14 3.75C14 3.60938 14.0469 3.49219 14.1406 3.39844C14.2396 3.30469 14.3594 3.25781 14.5 3.25781C14.5625 3.25781 14.6172 3.26823 14.6641 3.28906C14.7109 3.30469 14.7604 3.33073 14.8125 3.36719C15.0469 3.51823 15.2786 3.71094 15.5078 3.94531C15.737 4.17969 15.9531 4.43229 16.1562 4.70312C16.3646 4.96875 16.5547 5.24219 16.7266 5.52344C16.8984 5.80469 17.0443 6.07031 17.1641 6.32031C17.4401 6.89844 17.6484 7.4974 17.7891 8.11719C17.9297 8.73177 18 9.35938 18 10C18 10.6354 17.9297 11.2656 17.7891 11.8906C17.6484 12.5104 17.4401 13.1068 17.1641 13.6797C17.0443 13.9245 16.8984 14.1901 16.7266 14.4766C16.5547 14.7578 16.3646 15.0339 16.1562 15.3047C15.9479 15.5703 15.7292 15.8203 15.5 16.0547C15.2708 16.2891 15.0417 16.4818 14.8125 16.6328C14.7552 16.6693 14.7031 16.6979 14.6562 16.7188C14.6146 16.7344 14.5625 16.7422 14.5 16.7422C14.3646 16.7422 14.2474 16.6927 14.1484 16.5938C14.0495 16.4948 14 16.3776 14 16.2422ZM5.29688 13H3.5C3.29688 13 3.10417 12.9609 2.92188 12.8828C2.73958 12.8047 2.57812 12.6979 2.4375 12.5625C2.30208 12.4219 2.19531 12.2604 2.11719 12.0781C2.03906 11.8958 2 11.7031 2 11.5V8.5C2 8.29688 2.03906 8.10417 2.11719 7.92188C2.19531 7.73958 2.30208 7.58073 2.4375 7.44531C2.57812 7.30469 2.73958 7.19531 2.92188 7.11719C3.10417 7.03906 3.29688 7 3.5 7H5.29688L7.71875 4.57031C7.79167 4.4974 7.8724 4.44531 7.96094 4.41406C8.05469 4.3776 8.15104 4.35938 8.25 4.35938C8.46354 4.35938 8.64062 4.42969 8.78125 4.57031C8.92708 4.71094 9 4.88802 9 5.10156V14.8984C9 15.0026 8.97917 15.099 8.9375 15.1875C8.90104 15.276 8.84635 15.3568 8.77344 15.4297C8.70573 15.4974 8.625 15.5521 8.53125 15.5938C8.44271 15.6302 8.34896 15.6484 8.25 15.6484C8.04167 15.6484 7.86458 15.5755 7.71875 15.4297L5.29688 13ZM12.0312 14.4453C12.0312 14.3568 12.0443 14.2891 12.0703 14.2422C12.1016 14.1953 12.1458 14.138 12.2031 14.0703C12.4896 13.7474 12.7448 13.4375 12.9688 13.1406C13.1927 12.8438 13.3802 12.5391 13.5312 12.2266C13.6823 11.9089 13.7969 11.5703 13.875 11.2109C13.9583 10.8516 14 10.4479 14 10C14 9.55208 13.9583 9.14844 13.875 8.78906C13.7969 8.42969 13.6823 8.09375 13.5312 7.78125C13.3802 7.46354 13.1927 7.15625 12.9688 6.85938C12.7448 6.5625 12.4896 6.2526 12.2031 5.92969C12.1458 5.86198 12.1016 5.80469 12.0703 5.75781C12.0443 5.71094 12.0312 5.64323 12.0312 5.55469C12.0312 5.41927 12.0807 5.30469 12.1797 5.21094C12.2839 5.11198 12.4036 5.0625 12.5391 5.0625C12.6172 5.0625 12.6771 5.07292 12.7188 5.09375C12.7604 5.10938 12.8125 5.14062 12.875 5.1875C13.0312 5.30729 13.1849 5.45573 13.3359 5.63281C13.4922 5.80469 13.638 5.98958 13.7734 6.1875C13.9141 6.38542 14.0417 6.58854 14.1562 6.79688C14.2708 7 14.3672 7.19271 14.4453 7.375C14.8151 8.20833 15 9.08333 15 10C15 10.9167 14.8151 11.7917 14.4453 12.625C14.3724 12.7917 14.276 12.9818 14.1562 13.1953C14.0417 13.4036 13.9141 13.612 13.7734 13.8203C13.6328 14.0234 13.4844 14.2135 13.3281 14.3906C13.1771 14.5677 13.026 14.7083 12.875 14.8125C12.8177 14.849 12.763 14.8802 12.7109 14.9062C12.6641 14.9271 12.6068 14.9375 12.5391 14.9375C12.4036 14.9375 12.2839 14.8906 12.1797 14.7969C12.0807 14.6979 12.0312 14.5807 12.0312 14.4453ZM8 14.2891V5.70312L5.85156 7.85156C5.7526 7.95052 5.63542 8 5.5 8H3.5C3.36458 8 3.2474 8.04948 3.14844 8.14844C3.04948 8.2474 3 8.36458 3 8.5V11.5C3 11.6354 3.04948 11.7526 3.14844 11.8516C3.2474 11.9505 3.36458 12 3.5 12H5.5C5.63542 12 5.7526 12.0495 5.85156 12.1484L8 14.2891ZM10.0938 12.5391C10.0938 12.4661 10.1016 12.4089 10.1172 12.3672C10.138 12.3255 10.1693 12.276 10.2109 12.2188C10.3307 12.0365 10.4401 11.862 10.5391 11.6953C10.638 11.5234 10.7214 11.3516 10.7891 11.1797C10.8568 11.0026 10.9089 10.8203 10.9453 10.6328C10.9818 10.4401 11 10.2292 11 10C11 9.77604 10.9818 9.56771 10.9453 9.375C10.9089 9.18229 10.8568 9 10.7891 8.82812C10.7214 8.65104 10.638 8.47917 10.5391 8.3125C10.4401 8.14062 10.3307 7.96354 10.2109 7.78125C10.1693 7.72396 10.138 7.67448 10.1172 7.63281C10.1016 7.59115 10.0938 7.53385 10.0938 7.46094C10.0938 7.32552 10.1432 7.20833 10.2422 7.10938C10.3411 7.01042 10.4583 6.96094 10.5938 6.96094C10.6823 6.96094 10.7552 6.97656 10.8125 7.00781C10.8698 7.03906 10.9271 7.08594 10.9844 7.14844C11.151 7.33073 11.2969 7.53646 11.4219 7.76562C11.5469 7.98958 11.651 8.22917 11.7344 8.48438C11.8229 8.73438 11.888 8.98958 11.9297 9.25C11.9766 9.51042 12 9.76042 12 10C12 10.2292 11.9766 10.4766 11.9297 10.7422C11.888 11.0026 11.8229 11.263 11.7344 11.5234C11.651 11.7786 11.5443 12.0234 11.4141 12.2578C11.2891 12.487 11.1458 12.6849 10.9844 12.8516C10.875 12.9714 10.7448 13.0312 10.5938 13.0312C10.4583 13.0312 10.3411 12.9844 10.2422 12.8906C10.1432 12.7917 10.0938 12.6745 10.0938 12.5391Z" fill="white"/>
</svg>
